<?xml version="1.0" encoding="UTF-8"?><svg id="Layer_1" xmlns="http://www.w3.org/2000/svg" viewBox="0 0 1419.2 356.32"><defs><style>.cls-1{fill:#fff;}</style></defs><g><path class="cls-1" d="M126.16,284.18c-17.21,0-32.29-2.93-45.23-8.79-12.94-5.86-22.34-14.04-28.2-24.54v105.47H0V75.07H50.54l2.2,30.21c11.23-22.21,35.71-33.32,73.42-33.32,13.55,0,26.28,2.65,38.18,7.97,11.9,5.31,22.22,12.57,30.95,21.79,8.73,9.22,15.62,20.45,20.69,33.69,5.06,13.25,7.6,27.5,7.6,42.75s-2.54,29.51-7.6,42.75c-5.07,13.25-11.96,24.45-20.69,33.6-8.73,9.16-19.04,16.39-30.95,21.7-11.9,5.31-24.63,7.97-38.18,7.97m-14.28-167.36c-16.48,0-30.46,5.77-41.93,17.3-11.47,11.54-17.21,26.22-17.21,44.04s5.71,32.5,17.12,44.04c11.41,11.54,25.42,17.3,42.02,17.3s30.36-5.77,41.66-17.3c11.29-11.54,16.94-26.21,16.94-44.04s-5.67-32.34-17.03-43.94c-11.35-11.59-25.21-17.4-41.57-17.4"/><path class="cls-1" d="M334.92,71.96c17.21,0,32.25,2.93,45.13,8.79,12.88,5.86,22.31,14.04,28.29,24.54l2.38-30.22h50.35v206.18h-50.35l-2.38-30.4c-11.23,22.22-35.71,33.33-73.42,33.33-13.55,0-26.28-2.65-38.18-7.97-11.9-5.31-22.19-12.54-30.86-21.7-8.67-9.15-15.54-20.35-20.6-33.6-5.07-13.25-7.6-27.49-7.6-42.75s2.53-29.51,7.6-42.75c5.06-13.25,11.93-24.47,20.6-33.7,8.66-9.21,18.95-16.48,30.86-21.79,11.9-5.31,24.63-7.97,38.18-7.97m14.28,167.54c16.6,0,30.61-5.77,42.02-17.3,11.41-11.54,17.12-26.25,17.12-44.13s-5.71-32.56-17.12-44.04c-11.42-11.47-25.43-17.21-42.02-17.21s-30.37,5.74-41.66,17.21c-11.29,11.48-16.94,26.18-16.94,44.13s5.67,32.35,17.03,43.95c11.35,11.59,25.21,17.39,41.57,17.39"/><path class="cls-1" d="M655.73,127.62l-52.73,3.48c-1.35-5.98-4.98-11.14-10.9-15.47-5.92-4.33-13.03-6.5-21.33-6.5-10.01,0-18.07,1.92-24.17,5.77-6.1,3.85-9.15,9.37-9.15,16.58,0,4.88,1.8,9,5.4,12.36,3.6,3.36,7.81,5.92,12.63,7.69,4.82,1.77,11.63,3.69,20.42,5.77,12.45,2.93,22.89,5.67,31.31,8.24,8.42,2.56,16.39,5.58,23.9,9.07,7.51,3.47,13.3,7.29,17.39,11.44,4.09,4.16,7.29,9.04,9.61,14.65,2.32,5.62,3.36,12.03,3.12,19.23-.61,20.5-8.7,36.32-24.26,47.42-15.56,11.11-37.26,16.66-65.09,16.66s-48.4-5.13-64.64-15.38c-16.24-10.26-25.39-24.96-27.47-44.13l52.37-4.4c1.83,8.3,6.53,14.74,14.1,19.32,7.57,4.57,16.11,6.86,25.63,6.86,10.5,0,19.16-2.13,26-6.41,6.83-4.27,10.25-10.25,10.25-17.94s-4.24-13.4-12.72-18.22c-8.49-4.82-19.99-8.88-34.52-12.18-15.02-3.54-26.8-6.77-35.34-9.7-8.55-2.93-16.2-6.68-22.98-11.26-6.78-4.58-11.48-9.95-14.1-16.11-2.63-6.16-3.94-13.94-3.94-23.34,0-19.17,7.75-33.81,23.25-43.95,15.5-10.13,36.99-15.2,64.46-15.2,24.53,0,44.09,4.7,58.68,14.1,14.59,9.4,22.86,23.25,24.81,41.57"/><path class="cls-1" d="M695.3,28.56h52.73v46.51h50.9v41.2h-50.9v93.57c0,16.84,6.35,26.18,19.04,28.02,9.28,2.08,19.89,1.95,31.86-.37v43.4c-13.8,2.2-26.61,3.29-38.45,3.29-23.56,0-40.32-5.92-50.26-17.76-9.95-11.84-14.92-30.09-14.92-54.75V116.27h-28.02v-41.2h28.02V28.56Z"/><path class="cls-1" d="M916.69,71.96c16.35,0,31.52,2.87,45.5,8.61,13.97,5.74,25.88,13.83,35.71,24.26,9.82,10.44,17.3,23.38,22.43,38.82,5.13,15.44,7.14,32.44,6.04,51h-166.81c3.17,14.53,10.01,26.12,20.51,34.79,10.5,8.67,22.7,13,36.62,13,12.08,0,22.79-3.08,32.14-9.25,9.34-6.16,16.57-14.8,21.7-25.91l45.23,21.61c-9.28,17.21-22.83,30.73-40.65,40.56-17.82,9.83-37.29,14.74-58.41,14.74s-38.79-4.21-55.57-12.63c-16.79-8.42-30.31-20.79-40.56-37.08-10.26-16.3-15.38-35.07-15.38-56.3s5.13-40.04,15.38-56.4c10.25-16.35,23.77-28.75,40.56-37.17,16.78-8.42,35.31-12.64,55.57-12.64m0,41.93c-14.65,0-27.13,4.3-37.44,12.91-10.32,8.61-16.88,20.23-19.69,34.88h114.44c-2.93-14.65-9.52-26.27-19.77-34.88-10.26-8.61-22.77-12.91-37.54-12.91"/><rect class="cls-1" x="1045.25" width="52.73" height="281.25"/></g><g><polygon class="cls-1" points="1218.75 41.74 1218.75 101.77 1359.06 101.77 1359.06 242.18 1419.2 242.18 1419.2 41.74 1218.75 41.74"/><path class="cls-1" d="M1178.66,150.27c0,72.96,59.03,132,132,132h28.36V121.91h-160.36v28.36Z"/></g></svg>